# xmcd
#
# Track frame offsets: 
#        150
#        9062
#        33165
#        56572
#        86462
#        116119
#        139182
#        165579
#
# Disc length: 2443 seconds
#
# Revision: 2
# Processed by: cddbd v1.5.2PL0 Copyright (c) Steve Scherf et al.
# Submitted via: ExactAudioCopy v0.95b4
#
DISCID=58098908
DTITLE=Satanic Warmaster - Nachzehrer
DYEAR=2010
DGENRE=Black Metal
TTITLE0=Intro
TTITLE1=Satan's Werewolf
TTITLE2=Vampires
TTITLE3=Warmaster Returns
TTITLE4=One Shining Star
TTITLE5=Bestial Darkness
TTITLE6=Rotting Raven's Blood
TTITLE7=Utug-Hul
EXTD=
EXTT0=
EXTT1=
EXTT2=
EXTT3=
EXTT4=
EXTT5=
EXTT6=
EXTT7=
PLAYORDER=
